<?xml version="1.0" encoding="utf-8"?>
<!-- Generator: Adobe Illustrator 22.1.0, SVG Export Plug-In . SVG Version: 6.00 Build 0)  -->
<svg version="1.1" id="Layer_1" xmlns="http://www.w3.org/2000/svg" xmlns:xlink="http://www.w3.org/1999/xlink" x="0px" y="0px"
	 viewBox="0 0 500 500" style="enable-background:new 0 0 500 500;" xml:space="preserve">
<style type="text/css">
	.st0{fill:#1771DD;}
	.st1{fill-rule:evenodd;clip-rule:evenodd;fill:#FDD4A6;}
	.st2{fill-rule:evenodd;clip-rule:evenodd;fill:#EAB88E;}
	.st3{fill-rule:evenodd;clip-rule:evenodd;fill:#5C5C5C;}
	.st4{fill-rule:evenodd;clip-rule:evenodd;fill:#4B4B4B;}
	.st5{fill-rule:evenodd;clip-rule:evenodd;fill:#FFF0E6;}
	.st6{fill-rule:evenodd;clip-rule:evenodd;fill:#E6E6E6;}
	.st7{fill:#C2C291;}
	.st8{fill:#333333;}
	.st9{fill-rule:evenodd;clip-rule:evenodd;fill:#EF5160;}
	.st10{fill-rule:evenodd;clip-rule:evenodd;fill:#FFD600;}
	.st11{fill-rule:evenodd;clip-rule:evenodd;fill:#D3AAAA;}
	.st12{fill-rule:evenodd;clip-rule:evenodd;fill:#FFE76A;}
	.st13{fill-rule:evenodd;clip-rule:evenodd;fill:#F5F5F5;}
	.st14{fill-rule:evenodd;clip-rule:evenodd;fill:#FFFFFF;}
	.st15{fill-rule:evenodd;clip-rule:evenodd;fill:#666666;}
	.st16{fill-rule:evenodd;clip-rule:evenodd;fill:#DB8A8A;}
	.st17{fill:#C2424D;}
</style>
<rect x="0" y="0.5" class="st0" width="500" height="500"/>
<g id="Partnership_2_">
	<g id="Handshake">
		<path class="st1" d="M251.7,277.7l33.9,3l29.7-6.9c0,0,31.4,47,31.5,52c0.1,4.9-37.1,19.6-41.9,18.4l-65.4-15.7L251.7,277.7z"/>
		<path class="st2" d="M170.6,355.1l93.3,52.2c23.3,13.1,30.9-7.9,16.2-16.1c17.5,8.2,25.9-12.2,13.5-18.5c12.5,7,26.8-8.8,13.8-16
			c12.6,7,19-10.1,7.6-17.3l-57.5-36.6l-7.9,2.4l-7.5-18.4c-5.6-13.6-27.9-1.2-43.9,3.3c-6,1.7-21.4-4.9-27.2-2.5
			c-6.5,2.7-12.9,11.9-17.2,18.5C135.7,334.2,148,342.4,170.6,355.1L170.6,355.1z"/>
		<path class="st1" d="M189.3,345.3l-11,20.5c-8.4,15.6,4.8,29.8,13.9,16c-3.4,5.2-2,12.2,3.2,15.6l0,0c5.2,3.4,12.2,2,15.6-3.2
			c-3.4,5.2-2,12.2,3.2,15.6l0,0c5.2,3.4,12.2,2,15.6-3.2c-3.9,6-1.3,20.2,10.6,14.1c9.5-4.9,18.1-19.9,23.5-25
			c4.5-4.2,2-12.2-3.2-15.6l0,0c-5.2-3.4-12.2-2-15.6,3.2c3.4-5.2,2-12.2-3.2-15.6l0,0c-5.2-3.4-12.2-2-15.6,3.2
			c3.4-5.2,2-12.2-3.2-15.6l0,0c-5.2-3.4-12.2-2-15.6,3.2c3.4-5.2,2-12.2-3.2-15.6l0,0C199.5,339.7,192.9,340.8,189.3,345.3
			L189.3,345.3z"/>
		<path class="st1" d="M251.7,277.7c-14.8,9.3-30.8,14.4-35.7,21.6c-6.3,9.4,2.6,15.4,14.9,11.7c9.8-3,19.7-5.9,29.5-8.9
			L251.7,277.7z"/>
		<path class="st3" d="M311.3,271.4l83.6-32.8c2.6-1,5.6,0.3,6.6,2.9l21.9,55.6c1,2.6-0.3,5.6-2.9,6.6l-83.6,32.8
			c-2.6,1-5.6-0.3-6.6-2.9L308.4,278C307.4,275.4,308.7,272.4,311.3,271.4L311.3,271.4z"/>
		<path class="st4" d="M413.5,272.1l9.8,24.9c1,2.6-0.3,5.6-2.9,6.6l-83.6,32.8c-2.6,1-5.6-0.3-6.6-2.9l-9.8-25l0,0L413.5,272.1z"/>
		<path class="st3" d="M99.9,247.3l82,36.7c2.6,1.1,3.7,4.2,2.6,6.7L160,345.4c-1.2,2.6-4.2,3.7-6.7,2.6l-82-36.7
			c-2.6-1.1-3.7-4.2-2.6-6.7l24.4-54.5C94.3,247.4,97.3,246.2,99.9,247.3L99.9,247.3z"/>
		<path class="st4" d="M172.3,318.1L160,345.4c-1.2,2.6-4.2,3.7-6.7,2.6l-82-36.7c-2.6-1.1-3.7-4.2-2.6-6.7l11-24.4l0,0L172.3,318.1
			z"/>
		<path class="st5" d="M207.6,351.2c-2-4.2-4.3-7.7-12.6-7.6C193.6,353,200.4,357.1,207.6,351.2L207.6,351.2z"/>
		<path class="st5" d="M226.1,363.4c-1.9-4.2-4.3-7.7-12.6-7.6C212,365.2,218.9,369.2,226.1,363.4L226.1,363.4z"/>
		<path class="st5" d="M245,376.2c-1.9-4.2-4.3-7.7-12.6-7.6C231,378,237.8,382,245,376.2L245,376.2z"/>
		<path class="st5" d="M264,388.7c-1.9-4.2-4.3-7.7-12.6-7.6C250,390.5,256.8,394.6,264,388.7L264,388.7z"/>
	</g>
	<g id="Certificate">
		<path class="st6" d="M259.8,107.3h86.5c4.4,0,8,3.6,8,8V246c0,4.4-3.6,8-8,8h-86.5c-4.4,0-8-3.6-8-8V115.3
			C251.7,110.9,255.4,107.3,259.8,107.3L259.8,107.3z M265,113.8c1.3,0,2.4,1.1,2.4,2.4c0,1.4-1.1,2.5-2.4,2.5
			c-1.4,0-2.5-1.1-2.5-2.5C262.6,114.9,263.7,113.8,265,113.8L265,113.8z M303,113.8c1.4,0,2.5,1.1,2.5,2.4c0,1.4-1.1,2.5-2.5,2.5
			c-1.3,0-2.4-1.1-2.4-2.5C300.6,114.9,301.6,113.8,303,113.8L303,113.8z M315.7,113.8c1.3,0,2.5,1.1,2.5,2.4c0,1.4-1.1,2.5-2.5,2.5
			c-1.3,0-2.5-1.1-2.5-2.5C313.2,114.9,314.3,113.8,315.7,113.8L315.7,113.8z M328.3,113.8c1.4,0,2.5,1.1,2.5,2.4
			c0,1.4-1.1,2.5-2.5,2.5c-1.3,0-2.4-1.1-2.4-2.5C325.9,114.9,327,113.8,328.3,113.8L328.3,113.8z M341,113.8c1.3,0,2.5,1.1,2.5,2.4
			c0,1.4-1.1,2.5-2.5,2.5c-1.3,0-2.5-1.1-2.5-2.5C338.5,114.9,339.6,113.8,341,113.8L341,113.8z M290.3,113.8c1.3,0,2.5,1.1,2.5,2.4
			c0,1.4-1.1,2.5-2.5,2.5c-1.3,0-2.5-1.1-2.5-2.5C287.9,114.9,289,113.8,290.3,113.8L290.3,113.8z M277.7,113.8
			c1.4,0,2.5,1.1,2.5,2.4c0,1.4-1.1,2.5-2.5,2.5c-1.3,0-2.4-1.1-2.4-2.5C275.2,114.9,276.3,113.8,277.7,113.8L277.7,113.8z"/>
		<path class="st7" d="M267,134.6c-0.8,0-1.4-0.6-1.4-1.4c0-0.8,0.6-1.4,1.4-1.4h72.4c0.8,0,1.4,0.6,1.4,1.4c0,0.8-0.6,1.4-1.4,1.4
			H267z"/>
		<path class="st7" d="M267,147.9c-0.8,0-1.4-0.6-1.4-1.4c0-0.8,0.6-1.4,1.4-1.4h72.4c0.8,0,1.4,0.6,1.4,1.4c0,0.8-0.6,1.4-1.4,1.4
			H267z"/>
		<path class="st7" d="M267,161.2c-0.8,0-1.4-0.6-1.4-1.4c0-0.8,0.6-1.4,1.4-1.4h72.4c0.8,0,1.4,0.6,1.4,1.4c0,0.8-0.6,1.4-1.4,1.4
			H267z"/>
		<path class="st7" d="M267,174.5c-0.8,0-1.4-0.6-1.4-1.4c0-0.8,0.6-1.4,1.4-1.4h72.4c0.8,0,1.4,0.6,1.4,1.4c0,0.8-0.6,1.4-1.4,1.4
			H267z"/>
		<path class="st8" d="M348.2,105.9c-1-1.7-2.6-3.1-4.7-3.6c-2.1-0.6-4.2-0.2-5.9,0.8c-1,0.5-1.8,1.3-2.4,2.2c-1-1.4-2.5-2.5-4.3-3
			h0c-2.1-0.6-4.2-0.2-5.9,0.8c-1,0.5-1.8,1.3-2.5,2.2c-1-1.4-2.5-2.5-4.3-3c-2-0.5-4.1-0.2-5.8,0.7c0,0-0.1,0-0.1,0.1
			c-1,0.5-1.8,1.3-2.4,2.2c-1-1.4-2.5-2.5-4.3-3c-2-0.5-4.1-0.2-5.8,0.7c0,0-0.1,0-0.1,0.1c-1,0.5-1.8,1.3-2.4,2.2
			c-1-1.4-2.5-2.5-4.3-3c-2-0.5-4.1-0.2-5.8,0.7c0,0-0.1,0-0.1,0.1c-1,0.5-1.8,1.3-2.4,2.2c-1-1.4-2.5-2.5-4.3-3
			c-2.1-0.6-4.2-0.2-5.9,0.8c-1,0.5-1.8,1.3-2.5,2.2c-1-1.4-2.5-2.5-4.3-3c-2.1-0.6-4.2-0.2-5.9,0.8c-1.6,0.9-2.9,2.5-3.5,4.4
			c0.5-0.1,1-0.2,1.6-0.2h1.5c0.4-0.8,1.1-1.4,1.8-1.8c1.1-0.6,2.5-0.8,3.8-0.5c1.3,0.4,2.4,1.2,3,2.3c0.6,1.1,0.8,2.5,0.5,3.8
			c-0.4,1.3-1.2,2.4-2.3,3c-1.1,0.6-2.5,0.9-3.8,0.5c-0.7-0.2-1.5,0.2-1.7,1c-0.2,0.8,0.2,1.5,1,1.7c2.1,0.6,4.2,0.2,5.9-0.8
			c1.7-1,3.1-2.7,3.6-4.7c0.3-1,0.3-2,0.2-3c0.1-0.1,0.1-0.2,0.1-0.3c0.4-1.3,1.2-2.4,2.3-3c1.1-0.6,2.5-0.8,3.8-0.5
			c1.3,0.4,2.4,1.2,3,2.3c0.6,1.1,0.8,2.5,0.5,3.8c-0.3,1.3-1.2,2.4-2.3,3l-0.1,0.1c-1.1,0.6-2.4,0.8-3.7,0.4
			c-0.8-0.2-1.5,0.2-1.7,1c-0.2,0.8,0.2,1.5,1,1.7c2,0.6,4.1,0.2,5.8-0.7c0,0,0.1,0,0.1,0c1.7-1,3.1-2.6,3.6-4.7c0.3-1,0.3-2,0.2-3
			c0-0.1,0.1-0.1,0.1-0.2c0,0,0-0.1,0-0.1c0.4-1.3,1.2-2.4,2.3-3l0.1-0.1c1.1-0.6,2.4-0.8,3.7-0.4c1.3,0.4,2.4,1.2,3,2.3
			c0.6,1.1,0.8,2.5,0.5,3.8c-0.3,1.3-1.2,2.4-2.3,3c-1.1,0.6-2.4,0.9-3.8,0.5c-0.7-0.2-1.5,0.2-1.7,1c-0.2,0.8,0.2,1.5,1,1.7
			c2.1,0.6,4.2,0.2,5.9-0.8c1.7-1,3.1-2.6,3.6-4.7c0.3-1,0.3-2,0.2-3c0-0.1,0.1-0.1,0.1-0.2c0,0,0-0.1,0-0.1c0.3-1.3,1.2-2.4,2.3-3
			l0.1-0.1c1.1-0.6,2.4-0.8,3.7-0.4c1.3,0.4,2.4,1.2,3,2.3c0.6,1.1,0.8,2.5,0.5,3.8c-0.4,1.3-1.2,2.4-2.3,3
			c-1.1,0.6-2.5,0.9-3.8,0.5c-0.7-0.2-1.5,0.2-1.7,1c-0.2,0.8,0.3,1.5,1,1.7c2.1,0.6,4.2,0.2,5.9-0.8c1.7-1,3.1-2.6,3.6-4.7
			c0.3-1,0.3-2,0.2-3c0.1-0.1,0.1-0.1,0.1-0.2c0,0,0-0.1,0-0.1c0.3-1.3,1.2-2.4,2.3-3l0.1-0.1c1.1-0.6,2.4-0.8,3.7-0.4
			c1.3,0.4,2.4,1.2,3,2.3c0.6,1.1,0.8,2.5,0.5,3.8c-0.4,1.3-1.2,2.4-2.3,3c-1.1,0.6-2.5,0.9-3.8,0.5c-0.7-0.2-1.5,0.2-1.7,1
			c-0.2,0.8,0.2,1.5,1,1.7c2.1,0.6,4.2,0.2,5.9-0.8c1.7-1,3.1-2.6,3.6-4.7c0.3-1,0.3-2,0.2-3c0.1-0.1,0.1-0.2,0.1-0.3
			c0.4-1.3,1.2-2.4,2.3-3c1.1-0.6,2.5-0.8,3.8-0.5c1.3,0.4,2.4,1.2,3,2.3c0.6,1.1,0.8,2.5,0.5,3.8c-0.3,1.3-1.2,2.4-2.3,3l-0.1,0.1
			c-1.1,0.6-2.4,0.8-3.7,0.4c-0.8-0.2-1.5,0.2-1.7,1c-0.2,0.8,0.2,1.5,1,1.7c2,0.6,4.1,0.2,5.8-0.7c0,0,0.1,0,0.1,0
			c1.7-1,3.1-2.6,3.6-4.7v0c0.3-1,0.3-2,0.2-3c0.1-0.1,0.1-0.2,0.1-0.3c0.4-1.3,1.2-2.4,2.3-3c1.1-0.6,2.5-0.8,3.8-0.5
			c1.3,0.4,2.4,1.2,3,2.3c0.6,1.1,0.9,2.5,0.5,3.8c-0.3,1.3-1.2,2.4-2.3,3l-0.1,0.1c-1.1,0.6-2.4,0.8-3.7,0.4
			c-0.7-0.2-1.5,0.2-1.7,1c-0.2,0.8,0.2,1.5,1,1.7c2,0.6,4.1,0.2,5.8-0.7c0,0,0.1,0,0.1,0c1.7-1,3.1-2.6,3.6-4.7
			C349.5,109.7,349.2,107.6,348.2,105.9z"/>
		<path class="st9" d="M340.9,182.9c11.8,0,21.4,9.5,21.4,21.3c0,4.3-1.3,8.4-3.6,11.8l5.8,24l-1.6-1.1l-8.2-5.5l-4.8,8.7l-1,1.7
			l-4.4-18.5c-1.1,0.2-2.3,0.3-3.5,0.3c-1.2,0-2.4-0.1-3.5-0.3l-4.4,18.5l-1-1.7l-4.8-8.7L319,239l-1.6,1.1l5.8-24
			c-2.2-3.4-3.6-7.4-3.6-11.8C319.6,192.5,329.2,182.9,340.9,182.9L340.9,182.9z"/>
		<path class="st10" d="M341,218.6c7.9,0,14.3-6.5,14.3-14.4c0-7.9-6.4-14.4-14.3-14.4c-7.9,0-14.4,6.5-14.4,14.4
			C326.6,212.2,333,218.6,341,218.6L341,218.6z"/>
		<path class="st11" d="M268.7,186.7h41.1c1,0,1.9,0.8,1.9,1.9v12.8c0,1-0.8,1.9-1.9,1.9h-41.1c-1,0-1.9-0.8-1.9-1.9v-12.8
			C266.8,187.5,267.7,186.7,268.7,186.7L268.7,186.7z"/>
		<path class="st11" d="M267.6,211.8h43.3c0.4,0,0.8,0.3,0.8,0.8v5.2c0,0.4-0.3,0.8-0.8,0.8h-43.3c-0.4,0-0.8-0.3-0.8-0.8v-5.2
			C266.8,212.1,267.1,211.8,267.6,211.8L267.6,211.8z"/>
	</g>
	<g id="Bubble_Chat">
		<path class="st10" d="M142.8,189.9h73.9c9,0,16.4,7.4,16.4,16.4v19.4c0,9-7.4,16.4-16.4,16.4h-4.3l-25.7,31.7v-31.7h-43.9
			c-9,0-16.4-7.4-16.4-16.4v-19.4C126.4,197.3,133.8,189.9,142.8,189.9L142.8,189.9z"/>
		<path class="st12" d="M142.8,189.9h73.9c9,0,16.4,7.4,16.4,16.4v11.4H126.4v-11.4C126.4,197.3,133.8,189.9,142.8,189.9
			L142.8,189.9z"/>
		<path class="st13" d="M293.4,232.3h-51.7c-6.3,0-11.5,5.2-11.5,11.5v13.6c0,6.3,5.2,11.5,11.5,11.5h3l18,22.2v-22.2h30.8
			c6.3,0,11.5-5.2,11.5-11.5v-13.6C304.9,237.4,299.7,232.3,293.4,232.3L293.4,232.3z"/>
		<path class="st14" d="M293.4,232.3h-51.7c-6.3,0-11.5,5.2-11.5,11.5v8.8h74.7v-8.8C304.9,237.4,299.7,232.3,293.4,232.3
			L293.4,232.3z"/>
		<path class="st15" d="M162.8,225.8L162.8,225.8c0.2-0.2,0.4-0.3,0.7-0.3c2.3,0,2.9-1.6,4-4.2l0-0.1l-4.6-10.9l0,0v0l0,0
			c-0.1-0.1-0.1-0.2-0.1-0.4c0-0.3,0.1-0.5,0.3-0.7l0,0c0.2-0.2,0.4-0.3,0.7-0.3c0.3,0,0.5,0.1,0.6,0.2l0,0c0.1,0.1,0.2,0.3,0.3,0.4
			l0,0l3.8,9.2l3.8-9.2l0,0c0.1-0.1,0.2-0.3,0.3-0.4c0.1-0.1,0.3-0.2,0.6-0.2c0.3,0,0.5,0.1,0.7,0.3l0,0c0.2,0.2,0.3,0.4,0.3,0.7
			c0,0.2-0.1,0.3-0.1,0.4l0,0l0,0l0,0l-5.4,12.9c-0.6,1.4-1.2,2.4-2.1,3.1c-0.8,0.7-1.9,1.1-3.2,1.1c-0.3,0-0.5-0.1-0.7-0.3l0,0
			c-0.2-0.2-0.3-0.4-0.3-0.7C162.5,226.2,162.6,225.9,162.8,225.8L162.8,225.8z M176.5,220.5c-1-1.1-1.5-2.8-1.5-5
			c0-2.1,0.5-3.8,1.5-4.9c1-1.1,2.4-1.7,4.3-1.7c1.8,0,3,0.6,3.9,1.4c1.2,1.2,1.5,2.9,1.5,4c0,0.4,0,0.9-0.1,1.2
			c-0.2,0.4-0.5,0.7-1.1,0.7H177c0,1.3,0.4,2.4,1.1,3.1c0.7,0.7,1.7,1.2,2.9,1.2c0.8,0,1.4-0.2,1.9-0.4c0.5-0.2,0.9-0.5,1.3-0.8h0
			c0.1-0.1,0.2-0.1,0.2-0.1c0.1,0,0.2-0.1,0.3-0.1c0.2,0,0.5,0.1,0.6,0.3c0.2,0.2,0.3,0.4,0.3,0.6c0,0.2-0.1,0.3-0.1,0.4l0,0
			c-0.1,0.1-0.1,0.2-0.2,0.3l0,0c-0.3,0.3-0.9,0.8-1.9,1.2c-0.7,0.2-1.5,0.4-2.4,0.4C179.1,222.2,177.5,221.7,176.5,220.5
			L176.5,220.5z M177,214.3h7.2c0-0.9-0.2-1.9-0.7-2.5c-0.5-0.7-1.3-1.2-2.7-1.2c-1.1,0-2,0.4-2.6,1
			C177.5,212.2,177.1,213.2,177,214.3L177,214.3z M194.3,211c-0.4-0.2-1-0.3-1.7-0.3c-0.7,0-1.3,0.1-1.8,0.4
			c-0.3,0.2-0.6,0.6-0.6,1.1c0,1.2,1.4,1.7,3,2.2c2,0.7,4.2,1.5,4.2,4c0,1.2-0.5,2.1-1.3,2.8c-0.8,0.7-2.1,1-3.5,1
			c-1,0-2-0.2-2.7-0.5c-0.9-0.4-1.7-1-2.1-1.5l0,0c-0.1-0.1-0.1-0.2-0.2-0.3c-0.1-0.1-0.1-0.2-0.1-0.3c0-0.3,0.1-0.5,0.3-0.6
			c0.2-0.2,0.4-0.3,0.6-0.3c0.1,0,0.2,0,0.4,0.1l0,0c0.1,0,0.2,0.1,0.3,0.2l0,0c0.4,0.4,0.9,0.7,1.5,1c0.6,0.2,1.2,0.3,2,0.3
			c0.8,0,1.6-0.2,2.1-0.5c0.4-0.3,0.7-0.7,0.7-1.3c0-1.2-1.4-1.6-2.9-2.1c-2-0.7-4.3-1.5-4.3-4c0-1.1,0.4-2,1.1-2.5
			c0.8-0.6,1.9-0.9,3.2-0.9c0.9,0,1.8,0.2,2.5,0.4c0.7,0.3,1.3,0.8,1.8,1.3l0,0c0,0.1,0.1,0.1,0.1,0.2c0.1,0.1,0.1,0.2,0.1,0.3
			c0,0.2-0.1,0.5-0.3,0.6l0,0c-0.2,0.2-0.4,0.3-0.6,0.3c-0.1,0-0.2,0-0.3,0c-0.1-0.1-0.2-0.1-0.4-0.2
			C195.2,211.5,194.8,211.2,194.3,211L194.3,211z"/>
		<path class="st15" d="M258.2,249.4c0.8-1,2.1-1.4,3.6-1.4c1.5,0,2.8,0.5,3.6,1.4c0.8,0.9,1.2,2.2,1.2,4.1c0,1.8-0.4,3.2-1.2,4.1
			l0,0c-0.8,1-2,1.4-3.6,1.4c-1.5,0-2.7-0.5-3.6-1.4c-0.8-0.9-1.2-2.3-1.2-4.1C257,251.6,257.4,250.3,258.2,249.4L258.2,249.4z
			 M259.5,256.5c0.5,0.6,1.3,0.9,2.3,0.9c1,0,1.8-0.3,2.3-0.9c0.5-0.7,0.8-1.7,0.8-3.1c0-1.3-0.3-2.4-0.8-3c-0.5-0.7-1.3-1-2.4-1
			c-1,0-1.8,0.3-2.4,1c-0.5,0.6-0.8,1.6-0.8,3C258.6,254.9,258.9,255.9,259.5,256.5L259.5,256.5z M276.6,258.6
			c-0.2,0.1-0.3,0.2-0.6,0.2c-0.1,0-0.3,0-0.4-0.1c-0.1-0.1-0.2-0.2-0.3-0.3l0,0l-3.9-5l-1.3,1v3.6c0,0.2-0.1,0.4-0.2,0.6
			c-0.2,0.1-0.4,0.2-0.6,0.2c-0.2,0-0.4-0.1-0.6-0.2c-0.2-0.2-0.2-0.4-0.2-0.6v-14.7c0-0.2,0.1-0.4,0.2-0.6c0.1-0.1,0.3-0.2,0.6-0.2
			c0.2,0,0.4,0.1,0.6,0.2c0.1,0.2,0.2,0.4,0.2,0.6v9.2l5.1-4.2l0,0c0.1-0.1,0.2-0.2,0.3-0.2l0,0c0.1,0,0.2,0,0.3,0
			c0.2,0,0.4,0.1,0.6,0.2c0.2,0.1,0.2,0.3,0.2,0.6c0,0.1,0,0.2-0.1,0.4c-0.1,0.1-0.1,0.2-0.2,0.3l0,0l-3.6,2.9l3.9,5.1
			c0.1,0.1,0.1,0.2,0.2,0.3c0,0.1,0,0.2,0,0.3C276.8,258.2,276.7,258.5,276.6,258.6L276.6,258.6z"/>
	</g>
	<g id="Pen">
		<path class="st3" d="M187.6,128.9l6.1-5.5c1.4-1.3,3.7-1.2,5,0.3l62.7,69.8l-13,11.6L187.1,137C185,134.7,185.2,131,187.6,128.9
			L187.6,128.9z"/>
		<polygon class="st16" points="268.6,214.6 248.4,205.2 254.9,199.4 261.4,193.6 		"/>
		<path class="st3" d="M268.6,214.6l-7.6-3.6c0.5-1,1.2-1.9,2-2.7c0.9-0.8,1.9-1.3,2.9-1.7L268.6,214.6z"/>
		<path class="st11" d="M199.5,130.7L199.5,130.7c0.5-0.4,1.2-0.4,1.7,0.1l55.7,62.1c0.4,0.5,0.4,1.2-0.1,1.6l0,0
			c-0.5,0.4-1.2,0.4-1.6-0.1l-55.8-62.1C198.9,131.8,199,131.1,199.5,130.7L199.5,130.7z"/>
		<path class="st9" d="M187.8,133.6l43.7,49.1c0.9,1-1.6,3.9-2.8,2.6L185,136.2C184.1,135.1,186.8,132.5,187.8,133.6L187.8,133.6z"
			/>
		<path class="st17" d="M189.3,135.6c0.4-0.3,1-0.3,1.3,0.1c0.3,0.4,0.3,1-0.1,1.3l-5,4.5l5.6,6.2l11.2-10.1c0.4-0.3,1-0.3,1.3,0.1
			c0.3,0.4,0.3,1-0.1,1.3l-11.9,10.7c-0.4,0.3-1,0.3-1.3-0.1l-6.8-7.6c-0.3-0.4-0.3-1,0.1-1.3L189.3,135.6z"/>
	</g>
</g>
</svg>
